<mxfile host="app.diagrams.net" modified="2022-04-14T01:12:46.511Z" agent="5.0 (Windows NT 10.0; Win64; x64) AppleWebKit/537.36 (KHTML, like Gecko) Chrome/99.0.4844.82 Safari/537.36" etag="pjEPLhjstsF6uPS87IxK" version="17.4.3" type="github">
  <diagram id="O_rHrb0caBqRi1I56g9j" name="Page-1">
    <mxGraphModel dx="1964" dy="1896" grid="1" gridSize="10" guides="1" tooltips="1" connect="1" arrows="1" fold="1" page="1" pageScale="1" pageWidth="1169" pageHeight="827" math="0" shadow="0">
      <root>
        <mxCell id="0" />
        <mxCell id="1" parent="0" />
        <mxCell id="TXuqajXvy6KGiCEgBOY5-9" value="&lt;font style=&quot;font-size: 27px&quot; color=&quot;#ffffff&quot;&gt;&lt;b&gt;LIBRARY&lt;/b&gt;&lt;/font&gt;" style="whiteSpace=wrap;html=1;fillColor=#ffe6cc;strokeColor=#d79b00;" vertex="1" parent="1">
          <mxGeometry x="210" y="180" width="450" height="400" as="geometry" />
        </mxCell>
        <mxCell id="TXuqajXvy6KGiCEgBOY5-5" value="ShippingListService" style="swimlane;fontStyle=1;align=center;verticalAlign=top;childLayout=stackLayout;horizontal=1;startSize=26;horizontalStack=0;resizeParent=1;resizeParentMax=0;resizeLast=0;collapsible=1;marginBottom=0;" vertex="1" parent="1">
          <mxGeometry x="240" y="210" width="160" height="86" as="geometry" />
        </mxCell>
        <mxCell id="TXuqajXvy6KGiCEgBOY5-6" value="+ field: type" style="text;strokeColor=none;fillColor=none;align=left;verticalAlign=top;spacingLeft=4;spacingRight=4;overflow=hidden;rotatable=0;points=[[0,0.5],[1,0.5]];portConstraint=eastwest;" vertex="1" parent="TXuqajXvy6KGiCEgBOY5-5">
          <mxGeometry y="26" width="160" height="26" as="geometry" />
        </mxCell>
        <mxCell id="TXuqajXvy6KGiCEgBOY5-7" value="" style="line;strokeWidth=1;fillColor=none;align=left;verticalAlign=middle;spacingTop=-1;spacingLeft=3;spacingRight=3;rotatable=0;labelPosition=right;points=[];portConstraint=eastwest;" vertex="1" parent="TXuqajXvy6KGiCEgBOY5-5">
          <mxGeometry y="52" width="160" height="8" as="geometry" />
        </mxCell>
        <mxCell id="TXuqajXvy6KGiCEgBOY5-8" value="+ getPagnation()" style="text;strokeColor=none;fillColor=none;align=left;verticalAlign=top;spacingLeft=4;spacingRight=4;overflow=hidden;rotatable=0;points=[[0,0.5],[1,0.5]];portConstraint=eastwest;" vertex="1" parent="TXuqajXvy6KGiCEgBOY5-5">
          <mxGeometry y="60" width="160" height="26" as="geometry" />
        </mxCell>
        <mxCell id="TXuqajXvy6KGiCEgBOY5-10" value="GoodsService" style="swimlane;fontStyle=1;align=center;verticalAlign=top;childLayout=stackLayout;horizontal=1;startSize=26;horizontalStack=0;resizeParent=1;resizeParentMax=0;resizeLast=0;collapsible=1;marginBottom=0;" vertex="1" parent="1">
          <mxGeometry x="440" y="210" width="190" height="190" as="geometry">
            <mxRectangle x="350" y="80" width="70" height="26" as="alternateBounds" />
          </mxGeometry>
        </mxCell>
        <mxCell id="TXuqajXvy6KGiCEgBOY5-11" value="+ field: type" style="text;strokeColor=none;fillColor=none;align=left;verticalAlign=top;spacingLeft=4;spacingRight=4;overflow=hidden;rotatable=0;points=[[0,0.5],[1,0.5]];portConstraint=eastwest;" vertex="1" parent="TXuqajXvy6KGiCEgBOY5-10">
          <mxGeometry y="26" width="190" height="26" as="geometry" />
        </mxCell>
        <mxCell id="TXuqajXvy6KGiCEgBOY5-12" value="" style="line;strokeWidth=1;fillColor=none;align=left;verticalAlign=middle;spacingTop=-1;spacingLeft=3;spacingRight=3;rotatable=0;labelPosition=right;points=[];portConstraint=eastwest;" vertex="1" parent="TXuqajXvy6KGiCEgBOY5-10">
          <mxGeometry y="52" width="190" height="8" as="geometry" />
        </mxCell>
        <mxCell id="TXuqajXvy6KGiCEgBOY5-13" value="+ getPagnation()" style="text;strokeColor=none;fillColor=none;align=left;verticalAlign=top;spacingLeft=4;spacingRight=4;overflow=hidden;rotatable=0;points=[[0,0.5],[1,0.5]];portConstraint=eastwest;" vertex="1" parent="TXuqajXvy6KGiCEgBOY5-10">
          <mxGeometry y="60" width="190" height="26" as="geometry" />
        </mxCell>
        <mxCell id="TXuqajXvy6KGiCEgBOY5-36" value="- getDetail(goodsId)" style="text;strokeColor=default;fillColor=none;align=left;verticalAlign=top;spacingLeft=4;spacingRight=4;overflow=hidden;rotatable=0;points=[[0,0.5],[1,0.5]];portConstraint=eastwest;" vertex="1" parent="TXuqajXvy6KGiCEgBOY5-10">
          <mxGeometry y="86" width="190" height="26" as="geometry" />
        </mxCell>
        <mxCell id="TXuqajXvy6KGiCEgBOY5-33" value="+ addGoods(shippingId, params)" style="text;strokeColor=default;fillColor=none;align=left;verticalAlign=top;spacingLeft=4;spacingRight=4;overflow=hidden;rotatable=0;points=[[0,0.5],[1,0.5]];portConstraint=eastwest;" vertex="1" parent="TXuqajXvy6KGiCEgBOY5-10">
          <mxGeometry y="112" width="190" height="26" as="geometry" />
        </mxCell>
        <mxCell id="TXuqajXvy6KGiCEgBOY5-32" value="+ updateGoods(goodsId, params)" style="text;strokeColor=default;fillColor=none;align=left;verticalAlign=top;spacingLeft=4;spacingRight=4;overflow=hidden;rotatable=0;points=[[0,0.5],[1,0.5]];portConstraint=eastwest;" vertex="1" parent="TXuqajXvy6KGiCEgBOY5-10">
          <mxGeometry y="138" width="190" height="26" as="geometry" />
        </mxCell>
        <mxCell id="TXuqajXvy6KGiCEgBOY5-35" value="+ deleteGoods(goodsId, params)" style="text;strokeColor=default;fillColor=none;align=left;verticalAlign=top;spacingLeft=4;spacingRight=4;overflow=hidden;rotatable=0;points=[[0,0.5],[1,0.5]];portConstraint=eastwest;" vertex="1" parent="TXuqajXvy6KGiCEgBOY5-10">
          <mxGeometry y="164" width="190" height="26" as="geometry" />
        </mxCell>
        <mxCell id="TXuqajXvy6KGiCEgBOY5-14" value="GoodsImage" style="swimlane;fontStyle=1;align=center;verticalAlign=top;childLayout=stackLayout;horizontal=1;startSize=26;horizontalStack=0;resizeParent=1;resizeParentMax=0;resizeLast=0;collapsible=1;marginBottom=0;" vertex="1" parent="1">
          <mxGeometry x="250" y="413.5" width="160" height="86" as="geometry" />
        </mxCell>
        <mxCell id="TXuqajXvy6KGiCEgBOY5-15" value="+ field: type" style="text;strokeColor=none;fillColor=none;align=left;verticalAlign=top;spacingLeft=4;spacingRight=4;overflow=hidden;rotatable=0;points=[[0,0.5],[1,0.5]];portConstraint=eastwest;" vertex="1" parent="TXuqajXvy6KGiCEgBOY5-14">
          <mxGeometry y="26" width="160" height="26" as="geometry" />
        </mxCell>
        <mxCell id="TXuqajXvy6KGiCEgBOY5-16" value="" style="line;strokeWidth=1;fillColor=none;align=left;verticalAlign=middle;spacingTop=-1;spacingLeft=3;spacingRight=3;rotatable=0;labelPosition=right;points=[];portConstraint=eastwest;" vertex="1" parent="TXuqajXvy6KGiCEgBOY5-14">
          <mxGeometry y="52" width="160" height="8" as="geometry" />
        </mxCell>
        <mxCell id="TXuqajXvy6KGiCEgBOY5-17" value="+ method(type): type" style="text;strokeColor=none;fillColor=none;align=left;verticalAlign=top;spacingLeft=4;spacingRight=4;overflow=hidden;rotatable=0;points=[[0,0.5],[1,0.5]];portConstraint=eastwest;" vertex="1" parent="TXuqajXvy6KGiCEgBOY5-14">
          <mxGeometry y="60" width="160" height="26" as="geometry" />
        </mxCell>
        <mxCell id="TXuqajXvy6KGiCEgBOY5-18" value="BillImage" style="swimlane;fontStyle=1;align=center;verticalAlign=top;childLayout=stackLayout;horizontal=1;startSize=26;horizontalStack=0;resizeParent=1;resizeParentMax=0;resizeLast=0;collapsible=1;marginBottom=0;" vertex="1" parent="1">
          <mxGeometry x="440" y="414" width="160" height="86" as="geometry" />
        </mxCell>
        <mxCell id="TXuqajXvy6KGiCEgBOY5-19" value="+ field: type" style="text;strokeColor=none;fillColor=none;align=left;verticalAlign=top;spacingLeft=4;spacingRight=4;overflow=hidden;rotatable=0;points=[[0,0.5],[1,0.5]];portConstraint=eastwest;" vertex="1" parent="TXuqajXvy6KGiCEgBOY5-18">
          <mxGeometry y="26" width="160" height="26" as="geometry" />
        </mxCell>
        <mxCell id="TXuqajXvy6KGiCEgBOY5-20" value="" style="line;strokeWidth=1;fillColor=none;align=left;verticalAlign=middle;spacingTop=-1;spacingLeft=3;spacingRight=3;rotatable=0;labelPosition=right;points=[];portConstraint=eastwest;" vertex="1" parent="TXuqajXvy6KGiCEgBOY5-18">
          <mxGeometry y="52" width="160" height="8" as="geometry" />
        </mxCell>
        <mxCell id="TXuqajXvy6KGiCEgBOY5-21" value="+ method(type): type" style="text;strokeColor=none;fillColor=none;align=left;verticalAlign=top;spacingLeft=4;spacingRight=4;overflow=hidden;rotatable=0;points=[[0,0.5],[1,0.5]];portConstraint=eastwest;" vertex="1" parent="TXuqajXvy6KGiCEgBOY5-18">
          <mxGeometry y="60" width="160" height="26" as="geometry" />
        </mxCell>
        <mxCell id="TXuqajXvy6KGiCEgBOY5-37" value="&lt;font color=&quot;#ffffff&quot;&gt;&lt;span style=&quot;font-size: 27px&quot;&gt;&lt;b&gt;CONTROLLER&lt;/b&gt;&lt;/span&gt;&lt;/font&gt;" style="whiteSpace=wrap;html=1;fillColor=#ffe6cc;strokeColor=#d79b00;" vertex="1" parent="1">
          <mxGeometry x="210" y="-150" width="450" height="170" as="geometry" />
        </mxCell>
        <mxCell id="TXuqajXvy6KGiCEgBOY5-38" value="ShippingList" style="swimlane;fontStyle=1;align=center;verticalAlign=top;childLayout=stackLayout;horizontal=1;startSize=26;horizontalStack=0;resizeParent=1;resizeParentMax=0;resizeLast=0;collapsible=1;marginBottom=0;" vertex="1" parent="1">
          <mxGeometry x="250" y="-130" width="160" height="34" as="geometry" />
        </mxCell>
        <mxCell id="TXuqajXvy6KGiCEgBOY5-40" value="" style="line;strokeWidth=1;fillColor=none;align=left;verticalAlign=middle;spacingTop=-1;spacingLeft=3;spacingRight=3;rotatable=0;labelPosition=right;points=[];portConstraint=eastwest;" vertex="1" parent="TXuqajXvy6KGiCEgBOY5-38">
          <mxGeometry y="26" width="160" height="8" as="geometry" />
        </mxCell>
        <mxCell id="TXuqajXvy6KGiCEgBOY5-42" value="Goods" style="swimlane;fontStyle=1;align=center;verticalAlign=top;childLayout=stackLayout;horizontal=1;startSize=26;horizontalStack=0;resizeParent=1;resizeParentMax=0;resizeLast=0;collapsible=1;marginBottom=0;" vertex="1" parent="1">
          <mxGeometry x="450" y="-130" width="190" height="34" as="geometry">
            <mxRectangle x="350" y="80" width="70" height="26" as="alternateBounds" />
          </mxGeometry>
        </mxCell>
        <mxCell id="TXuqajXvy6KGiCEgBOY5-44" value="" style="line;strokeWidth=1;fillColor=none;align=left;verticalAlign=middle;spacingTop=-1;spacingLeft=3;spacingRight=3;rotatable=0;labelPosition=right;points=[];portConstraint=eastwest;" vertex="1" parent="TXuqajXvy6KGiCEgBOY5-42">
          <mxGeometry y="26" width="190" height="8" as="geometry" />
        </mxCell>
        <mxCell id="TXuqajXvy6KGiCEgBOY5-51" value="&lt;font color=&quot;#ffffff&quot;&gt;&lt;span style=&quot;font-size: 27px&quot;&gt;&lt;b&gt;ENTITY&lt;/b&gt;&lt;/span&gt;&lt;/font&gt;" style="whiteSpace=wrap;html=1;fillColor=#ffe6cc;strokeColor=#d79b00;" vertex="1" parent="1">
          <mxGeometry x="210" y="610" width="450" height="170" as="geometry" />
        </mxCell>
        <mxCell id="TXuqajXvy6KGiCEgBOY5-54" value="&lt;font color=&quot;#ffffff&quot;&gt;&lt;span style=&quot;font-size: 27px&quot;&gt;&lt;b&gt;MODEL&lt;/b&gt;&lt;/span&gt;&lt;/font&gt;" style="whiteSpace=wrap;html=1;fillColor=#ffe6cc;strokeColor=#d79b00;" vertex="1" parent="1">
          <mxGeometry x="210" y="800" width="450" height="480" as="geometry" />
        </mxCell>
        <mxCell id="TXuqajXvy6KGiCEgBOY5-55" value="ShippingListEntity" style="swimlane;fontStyle=1;align=center;verticalAlign=top;childLayout=stackLayout;horizontal=1;startSize=26;horizontalStack=0;resizeParent=1;resizeParentMax=0;resizeLast=0;collapsible=1;marginBottom=0;" vertex="1" parent="1">
          <mxGeometry x="240" y="637" width="160" height="34" as="geometry" />
        </mxCell>
        <mxCell id="TXuqajXvy6KGiCEgBOY5-57" value="" style="line;strokeWidth=1;fillColor=none;align=left;verticalAlign=middle;spacingTop=-1;spacingLeft=3;spacingRight=3;rotatable=0;labelPosition=right;points=[];portConstraint=eastwest;" vertex="1" parent="TXuqajXvy6KGiCEgBOY5-55">
          <mxGeometry y="26" width="160" height="8" as="geometry" />
        </mxCell>
        <mxCell id="TXuqajXvy6KGiCEgBOY5-59" value="GoodsEntity" style="swimlane;fontStyle=1;align=center;verticalAlign=top;childLayout=stackLayout;horizontal=1;startSize=26;horizontalStack=0;resizeParent=1;resizeParentMax=0;resizeLast=0;collapsible=1;marginBottom=0;" vertex="1" parent="1">
          <mxGeometry x="440" y="637" width="190" height="34" as="geometry">
            <mxRectangle x="350" y="80" width="70" height="26" as="alternateBounds" />
          </mxGeometry>
        </mxCell>
        <mxCell id="TXuqajXvy6KGiCEgBOY5-61" value="" style="line;strokeWidth=1;fillColor=none;align=left;verticalAlign=middle;spacingTop=-1;spacingLeft=3;spacingRight=3;rotatable=0;labelPosition=right;points=[];portConstraint=eastwest;" vertex="1" parent="TXuqajXvy6KGiCEgBOY5-59">
          <mxGeometry y="26" width="190" height="8" as="geometry" />
        </mxCell>
        <mxCell id="TXuqajXvy6KGiCEgBOY5-92" style="edgeStyle=orthogonalEdgeStyle;rounded=0;orthogonalLoop=1;jettySize=auto;html=1;entryX=0.473;entryY=0.978;entryDx=0;entryDy=0;entryPerimeter=0;fontSize=27;fontColor=#FFFFFF;" edge="1" parent="1" source="TXuqajXvy6KGiCEgBOY5-67" target="TXuqajXvy6KGiCEgBOY5-90">
          <mxGeometry relative="1" as="geometry" />
        </mxCell>
        <mxCell id="TXuqajXvy6KGiCEgBOY5-67" value="ShippingListModel" style="swimlane;fontStyle=1;align=center;verticalAlign=top;childLayout=stackLayout;horizontal=1;startSize=26;horizontalStack=0;resizeParent=1;resizeParentMax=0;resizeLast=0;collapsible=1;marginBottom=0;" vertex="1" parent="1">
          <mxGeometry x="260" y="1180" width="160" height="34" as="geometry" />
        </mxCell>
        <mxCell id="TXuqajXvy6KGiCEgBOY5-68" value="" style="line;strokeWidth=1;fillColor=none;align=left;verticalAlign=middle;spacingTop=-1;spacingLeft=3;spacingRight=3;rotatable=0;labelPosition=right;points=[];portConstraint=eastwest;" vertex="1" parent="TXuqajXvy6KGiCEgBOY5-67">
          <mxGeometry y="26" width="160" height="8" as="geometry" />
        </mxCell>
        <mxCell id="TXuqajXvy6KGiCEgBOY5-93" style="edgeStyle=orthogonalEdgeStyle;rounded=0;orthogonalLoop=1;jettySize=auto;html=1;entryX=0.505;entryY=1.007;entryDx=0;entryDy=0;entryPerimeter=0;fontSize=27;fontColor=#FFFFFF;" edge="1" parent="1" source="TXuqajXvy6KGiCEgBOY5-69" target="TXuqajXvy6KGiCEgBOY5-90">
          <mxGeometry relative="1" as="geometry" />
        </mxCell>
        <mxCell id="TXuqajXvy6KGiCEgBOY5-69" value="GoodsModel" style="swimlane;fontStyle=1;align=center;verticalAlign=top;childLayout=stackLayout;horizontal=1;startSize=26;horizontalStack=0;resizeParent=1;resizeParentMax=0;resizeLast=0;collapsible=1;marginBottom=0;" vertex="1" parent="1">
          <mxGeometry x="460" y="1180" width="190" height="34" as="geometry">
            <mxRectangle x="350" y="80" width="70" height="26" as="alternateBounds" />
          </mxGeometry>
        </mxCell>
        <mxCell id="TXuqajXvy6KGiCEgBOY5-70" value="" style="line;strokeWidth=1;fillColor=none;align=left;verticalAlign=middle;spacingTop=-1;spacingLeft=3;spacingRight=3;rotatable=0;labelPosition=right;points=[];portConstraint=eastwest;" vertex="1" parent="TXuqajXvy6KGiCEgBOY5-69">
          <mxGeometry y="26" width="190" height="8" as="geometry" />
        </mxCell>
        <mxCell id="TXuqajXvy6KGiCEgBOY5-80" value="BaseModel" style="swimlane;fontStyle=1;align=center;verticalAlign=top;childLayout=stackLayout;horizontal=1;startSize=26;horizontalStack=0;resizeParent=1;resizeParentMax=0;resizeLast=0;collapsible=1;marginBottom=0;" vertex="1" parent="1">
          <mxGeometry x="260" y="810" width="360" height="294" as="geometry" />
        </mxCell>
        <mxCell id="TXuqajXvy6KGiCEgBOY5-81" value="+ table" style="text;strokeColor=none;fillColor=none;align=left;verticalAlign=top;spacingLeft=4;spacingRight=4;overflow=hidden;rotatable=0;points=[[0,0.5],[1,0.5]];portConstraint=eastwest;" vertex="1" parent="TXuqajXvy6KGiCEgBOY5-80">
          <mxGeometry y="26" width="360" height="26" as="geometry" />
        </mxCell>
        <mxCell id="TXuqajXvy6KGiCEgBOY5-82" value="" style="line;strokeWidth=1;fillColor=none;align=left;verticalAlign=middle;spacingTop=-1;spacingLeft=3;spacingRight=3;rotatable=0;labelPosition=right;points=[];portConstraint=eastwest;" vertex="1" parent="TXuqajXvy6KGiCEgBOY5-80">
          <mxGeometry y="52" width="360" height="8" as="geometry" />
        </mxCell>
        <mxCell id="TXuqajXvy6KGiCEgBOY5-83" value="+ get(id)" style="text;strokeColor=default;fillColor=none;align=left;verticalAlign=top;spacingLeft=4;spacingRight=4;overflow=hidden;rotatable=0;points=[[0,0.5],[1,0.5]];portConstraint=eastwest;" vertex="1" parent="TXuqajXvy6KGiCEgBOY5-80">
          <mxGeometry y="60" width="360" height="26" as="geometry" />
        </mxCell>
        <mxCell id="TXuqajXvy6KGiCEgBOY5-89" value="+ getFrom(table, id)" style="text;strokeColor=default;fillColor=none;align=left;verticalAlign=top;spacingLeft=4;spacingRight=4;overflow=hidden;rotatable=0;points=[[0,0.5],[1,0.5]];portConstraint=eastwest;" vertex="1" parent="TXuqajXvy6KGiCEgBOY5-80">
          <mxGeometry y="86" width="360" height="26" as="geometry" />
        </mxCell>
        <mxCell id="TXuqajXvy6KGiCEgBOY5-88" value="+ getOne(where, fields, joins)" style="text;strokeColor=default;fillColor=none;align=left;verticalAlign=top;spacingLeft=4;spacingRight=4;overflow=hidden;rotatable=0;points=[[0,0.5],[1,0.5]];portConstraint=eastwest;" vertex="1" parent="TXuqajXvy6KGiCEgBOY5-80">
          <mxGeometry y="112" width="360" height="26" as="geometry" />
        </mxCell>
        <mxCell id="TXuqajXvy6KGiCEgBOY5-87" value="+ getOneFrom(table,where, fields, joins)" style="text;strokeColor=default;fillColor=none;align=left;verticalAlign=top;spacingLeft=4;spacingRight=4;overflow=hidden;rotatable=0;points=[[0,0.5],[1,0.5]];portConstraint=eastwest;" vertex="1" parent="TXuqajXvy6KGiCEgBOY5-80">
          <mxGeometry y="138" width="360" height="26" as="geometry" />
        </mxCell>
        <mxCell id="TXuqajXvy6KGiCEgBOY5-86" value="+ getAll(where, fields, joins, orderBy)" style="text;strokeColor=default;fillColor=none;align=left;verticalAlign=top;spacingLeft=4;spacingRight=4;overflow=hidden;rotatable=0;points=[[0,0.5],[1,0.5]];portConstraint=eastwest;" vertex="1" parent="TXuqajXvy6KGiCEgBOY5-80">
          <mxGeometry y="164" width="360" height="26" as="geometry" />
        </mxCell>
        <mxCell id="TXuqajXvy6KGiCEgBOY5-85" value="+ getAllFrom(table, where, fields, joins, orderBy&#xa;)" style="text;strokeColor=default;fillColor=none;align=left;verticalAlign=top;spacingLeft=4;spacingRight=4;overflow=hidden;rotatable=0;points=[[0,0.5],[1,0.5]];portConstraint=eastwest;" vertex="1" parent="TXuqajXvy6KGiCEgBOY5-80">
          <mxGeometry y="190" width="360" height="26" as="geometry" />
        </mxCell>
        <mxCell id="TXuqajXvy6KGiCEgBOY5-84" value="+ getLimit(where, fields, limit, offset, joins, orderBy)" style="text;strokeColor=default;fillColor=none;align=left;verticalAlign=top;spacingLeft=4;spacingRight=4;overflow=hidden;rotatable=0;points=[[0,0.5],[1,0.5]];portConstraint=eastwest;" vertex="1" parent="TXuqajXvy6KGiCEgBOY5-80">
          <mxGeometry y="216" width="360" height="26" as="geometry" />
        </mxCell>
        <mxCell id="TXuqajXvy6KGiCEgBOY5-91" value="+ getLimitFrom(table,where, fields, limit, offset, joins, orderBy)" style="text;strokeColor=default;fillColor=none;align=left;verticalAlign=top;spacingLeft=4;spacingRight=4;overflow=hidden;rotatable=0;points=[[0,0.5],[1,0.5]];portConstraint=eastwest;" vertex="1" parent="TXuqajXvy6KGiCEgBOY5-80">
          <mxGeometry y="242" width="360" height="26" as="geometry" />
        </mxCell>
        <mxCell id="TXuqajXvy6KGiCEgBOY5-90" style="text;strokeColor=default;fillColor=none;align=left;verticalAlign=top;spacingLeft=4;spacingRight=4;overflow=hidden;rotatable=0;points=[[0,0.5],[1,0.5]];portConstraint=eastwest;" vertex="1" parent="TXuqajXvy6KGiCEgBOY5-80">
          <mxGeometry y="268" width="360" height="26" as="geometry" />
        </mxCell>
      </root>
    </mxGraphModel>
  </diagram>
</mxfile>
